<svg xmlns="http://www.w3.org/2000/svg" xmlns:xlink="http://www.w3.org/1999/xlink" width="500" zoomAndPan="magnify" viewBox="0 0 375 149.999998" height="200" preserveAspectRatio="xMidYMid meet" version="1.0"><defs><g/><clipPath id="2d0d2fb628"><path d="M 0.015625 23.425781 L 374.25 23.425781 L 374.25 126.925781 L 0.015625 126.925781 Z M 0.015625 23.425781 " clip-rule="nonzero"/></clipPath><clipPath id="0acaa71f1f"><path d="M 3.761719 23.425781 L 370.488281 23.425781 C 372.554688 23.425781 374.234375 25.113281 374.234375 27.191406 L 374.234375 123.164062 C 374.234375 125.242188 372.554688 126.925781 370.488281 126.925781 L 3.761719 126.925781 C 1.695312 126.925781 0.015625 125.242188 0.015625 123.164062 L 0.015625 27.191406 C 0.015625 25.113281 1.695312 23.425781 3.761719 23.425781 " clip-rule="nonzero"/></clipPath><clipPath id="1cd2cb98d2"><path d="M 10.117188 33.121094 L 187.261719 33.121094 L 187.261719 116.878906 L 10.117188 116.878906 Z M 10.117188 33.121094 " clip-rule="nonzero"/></clipPath></defs><g clip-path="url(#2d0d2fb628)"><g clip-path="url(#0acaa71f1f)"><path stroke-linecap="butt" transform="matrix(0.74946, 0, 0, 0.752642, 0.0161771, 23.426877)" fill="none" stroke-linejoin="miter" d="M 4.997652 -0.0014556 L 494.318554 -0.0014556 C 497.075747 -0.0014556 499.316943 2.240647 499.316943 5.001755 L 499.316943 132.516156 C 499.316943 135.277264 497.075747 137.514176 494.318554 137.514176 L 4.997652 137.514176 C 2.24046 137.514176 -0.000736649 135.277264 -0.000736649 132.516156 L -0.000736649 5.001755 C -0.000736649 2.240647 2.24046 -0.0014556 4.997652 -0.0014556 " stroke="#5e17eb" stroke-width="14" stroke-opacity="1" stroke-miterlimit="4"/></g></g><g clip-path="url(#1cd2cb98d2)"><path fill="#5e17eb" d="M 10.117188 33.121094 L 187.523438 33.121094 L 187.523438 116.996094 L 10.117188 116.996094 Z M 10.117188 33.121094 " fill-opacity="1" fill-rule="nonzero"/></g><g fill="#ffffff" fill-opacity="1"><g transform="translate(26.337516, 88.049885)"><g><path d="M 4.101562 0 L 21.304688 0 L 21.304688 -3.375 L 7.636719 -3.375 L 7.636719 -28.140625 L 4.101562 -28.140625 Z M 4.101562 0 "/></g></g></g><g fill="#ffffff" fill-opacity="1"><g transform="translate(51.936474, 88.049885)"><g><path d="M 4.101562 0 L 21.625 0 L 21.625 -3.296875 L 7.636719 -3.296875 L 7.636719 -12.703125 L 20.179688 -12.703125 L 20.179688 -15.957031 L 7.636719 -15.957031 L 7.636719 -24.84375 L 21.183594 -24.84375 L 21.183594 -28.140625 L 4.101562 -28.140625 Z M 4.101562 0 "/></g></g></g><g fill="#ffffff" fill-opacity="1"><g transform="translate(79.223195, 88.049885)"><g><path d="M 0.683594 0 L 4.460938 0 L 7.035156 -6.390625 L 20.742188 -6.390625 L 23.394531 0 L 27.132812 0 L 15.558594 -28.140625 L 12.261719 -28.140625 Z M 8.402344 -9.6875 L 13.910156 -23.195312 L 19.414062 -9.6875 Z M 8.402344 -9.6875 "/></g></g></g><g fill="#ffffff" fill-opacity="1"><g transform="translate(110.086354, 88.049885)"><g><path d="M 4.101562 0 L 7.636719 0 L 7.636719 -10.089844 L 13.828125 -10.089844 L 20.703125 0 L 24.964844 0 L 17.886719 -10.453125 C 21.988281 -11.457031 24.519531 -14.550781 24.519531 -19.09375 C 24.519531 -24.683594 20.660156 -28.140625 14.832031 -28.140625 L 4.101562 -28.140625 Z M 7.636719 -13.464844 L 7.636719 -24.761719 L 14.429688 -24.761719 C 18.53125 -24.761719 20.902344 -22.671875 20.902344 -19.09375 C 20.902344 -15.515625 18.53125 -13.464844 14.429688 -13.464844 Z M 7.636719 -13.464844 "/></g></g></g><g fill="#ffffff" fill-opacity="1"><g transform="translate(140.507488, 88.049885)"><g><path d="M 4.101562 0 L 7.597656 0 L 7.597656 -22.027344 L 23.152344 0 L 26.449219 0 L 26.449219 -28.140625 L 22.992188 -28.140625 L 22.992188 -6.109375 L 7.4375 -28.140625 L 4.101562 -28.140625 Z M 4.101562 0 "/></g></g></g><g fill="#5e17eb" fill-opacity="1"><g transform="translate(198.745259, 88.511248)"><g><path d="M 2.976562 0 L 11.015625 0 L 11.015625 -14.269531 L 16.441406 -6.671875 L 21.707031 -6.671875 L 27.09375 -14.230469 L 27.09375 0 L 35.136719 0 L 35.136719 -28.140625 L 28.542969 -28.140625 L 19.054688 -14.753906 L 9.609375 -28.140625 L 2.976562 -28.140625 Z M 2.976562 0 "/></g></g></g><g fill="#5e17eb" fill-opacity="1"><g transform="translate(236.850329, 88.511248)"><g><path d="M 0.199219 0 L 8.804688 0 L 10.332031 -3.980469 L 19.9375 -3.980469 L 21.46875 0 L 30.109375 0 L 19.175781 -28.140625 L 11.136719 -28.140625 Z M 12.019531 -9.929688 L 15.15625 -18.652344 L 18.289062 -9.929688 Z M 12.019531 -9.929688 "/></g></g></g><g fill="#5e17eb" fill-opacity="1"><g transform="translate(267.157533, 88.511248)"><g><path d="M 9.6875 0 L 17.769531 0 L 17.769531 -20.621094 L 26.332031 -20.621094 L 26.332031 -28.140625 L 1.125 -28.140625 L 1.125 -20.621094 L 9.6875 -20.621094 Z M 9.6875 0 "/></g></g></g><g fill="#5e17eb" fill-opacity="1"><g transform="translate(294.610866, 88.511248)"><g><path d="M 2.976562 0 L 22.714844 0 L 22.714844 -6.632812 L 11.015625 -6.632812 L 11.015625 -10.972656 L 21.183594 -10.972656 L 21.183594 -17.488281 L 11.015625 -17.488281 L 11.015625 -21.585938 L 22.269531 -21.585938 L 22.269531 -28.140625 L 2.976562 -28.140625 Z M 2.976562 0 "/></g></g></g><g fill="#5e17eb" fill-opacity="1"><g transform="translate(319.129957, 88.511248)"><g><path d="M 0.199219 0 L 8.804688 0 L 10.332031 -3.980469 L 19.9375 -3.980469 L 21.46875 0 L 30.109375 0 L 19.175781 -28.140625 L 11.136719 -28.140625 Z M 12.019531 -9.929688 L 15.15625 -18.652344 L 18.289062 -9.929688 Z M 12.019531 -9.929688 "/></g></g></g><g fill="#5e17eb" fill-opacity="1"><g transform="translate(349.43716, 88.511248)"><g><path d="M 2.976562 0 L 11.09375 0 L 11.09375 -28.140625 L 2.976562 -28.140625 Z M 2.976562 0 "/></g></g></g></svg>