<?xml version="1.0" standalone="no"?>
<!DOCTYPE svg PUBLIC "-//W3C//DTD SVG 20010904//EN"
 "http://www.w3.org/TR/2001/REC-SVG-20010904/DTD/svg10.dtd">
<svg version="1.0" xmlns="http://www.w3.org/2000/svg"
 width="580.000000pt" height="320.000000pt" viewBox="0 0 580.000000 320.000000"
 preserveAspectRatio="xMidYMid meet">

<g transform="translate(0.000000,320.000000) scale(0.100000,-0.100000)"
fill="#000000" stroke="none">
<path d="M0 1600 l0 -1600 2900 0 2900 0 0 1600 0 1600 -2900 0 -2900 0 0
-1600z m932 520 c26 -40 37 -49 53 -45 98 27 198 27 267 0 12 -5 25 6 49 42
41 61 38 57 46 50 3 -4 -9 -28 -27 -54 l-34 -46 25 -16 c83 -54 159 -158 159
-218 l0 -23 -355 0 -354 0 6 33 c14 77 84 166 161 206 l22 12 -28 42 c-41 61
-44 67 -33 67 6 0 26 -23 43 -50z m-247 -385 c25 -24 25 -26 25 -215 0 -189 0
-191 -25 -215 -26 -27 -70 -32 -96 -12 -34 26 -39 54 -39 232 l0 177 29 29
c36 36 73 37 106 4z m795 -275 l0 -301 -25 -24 c-18 -19 -35 -25 -70 -25 l-45
0 0 -99 c0 -55 -3 -107 -6 -116 -9 -23 -60 -46 -88 -39 -51 12 -61 37 -61 150
l0 104 -67 0 -68 0 0 -103 c0 -112 -10 -140 -55 -151 -29 -7 -79 15 -89 39 -3
9 -6 61 -6 116 l0 99 -45 0 c-35 0 -52 6 -70 25 l-25 24 0 301 0 300 360 0
360 0 0 -300z m175 275 c25 -24 25 -25 25 -219 l0 -195 -26 -20 c-15 -12 -37
-21 -49 -21 -12 0 -34 9 -49 21 l-26 20 0 199 0 199 26 20 c35 28 69 26 99 -4z"/>
<path d="M931 1968 c-13 -33 4 -60 36 -56 56 7 55 69 -1 76 -20 3 -28 -2 -35
-20z"/>
<path d="M1240 1970 c-15 -28 4 -60 35 -60 31 0 50 32 35 60 -6 12 -21 20 -35
20 -14 0 -29 -8 -35 -20z"/>
</g>
</svg>
