<?xml version="1.0" standalone="no"?>
<!DOCTYPE svg PUBLIC "-//W3C//DTD SVG 20010904//EN"
 "http://www.w3.org/TR/2001/REC-SVG-20010904/DTD/svg10.dtd">
<svg version="1.0" xmlns="http://www.w3.org/2000/svg"
 width="424.000000pt" height="290.000000pt" viewBox="0 0 424.000000 290.000000"
 preserveAspectRatio="xMidYMid meet">

<g transform="translate(0.000000,290.000000) scale(0.100000,-0.100000)"
fill="#000000" stroke="none">
<path d="M1410 1170 c0 -5 5 -10 10 -10 6 0 10 -47 10 -120 0 -73 -4 -120 -10
-120 -5 0 -10 -4 -10 -9 0 -9 38 -6 68 4 7 3 21 0 31 -7 50 -31 108 31 98 104
-8 59 -33 81 -84 75 l-43 -5 0 49 0 49 -35 0 c-19 0 -35 -4 -35 -10z m134
-116 c10 -25 7 -93 -4 -115 -13 -23 -24 -24 -44 -3 -19 19 -22 104 -4 122 17
17 45 15 52 -4z"/>
<path d="M1860 1170 c0 -5 7 -10 15 -10 11 0 14 -10 13 -39 l-1 -40 -48 6
c-43 5 -48 3 -64 -21 -25 -38 -22 -112 6 -142 21 -23 68 -32 83 -17 4 4 28 6
54 5 26 -1 41 1 35 4 -10 4 -13 41 -13 135 l0 129 -40 0 c-22 0 -40 -4 -40
-10z m21 -127 c12 -32 6 -88 -12 -109 -39 -47 -70 39 -43 124 7 23 44 13 55
-15z"/>
<path d="M2590 1170 c0 -5 7 -10 15 -10 24 0 22 -225 -2 -238 -12 -7 -5 -11
31 -13 50 -4 79 4 52 14 -13 5 -16 27 -16 132 l0 125 -40 0 c-22 0 -40 -4 -40
-10z"/>
<path d="M1252 1084 c-87 -36 -53 -184 42 -184 36 0 76 24 76 46 0 20 -18 17
-25 -5 -9 -29 -47 -35 -67 -10 -10 12 -18 30 -18 40 0 17 8 19 61 19 l61 0 -7
28 c-16 66 -63 92 -123 66z m56 -16 c7 -7 12 -22 12 -35 0 -19 -5 -23 -30 -23
-32 0 -38 16 -20 51 12 22 21 24 38 7z"/>
<path d="M900 1081 c0 -5 6 -11 13 -14 7 -3 23 -39 35 -80 31 -105 51 -109 79
-14 12 40 26 34 41 -17 10 -33 18 -46 32 -46 14 0 24 18 45 80 15 44 31 80 36
80 5 0 9 5 9 10 0 6 -13 10 -30 10 -29 0 -42 -14 -19 -22 12 -4 -5 -83 -20
-92 -5 -3 -16 22 -25 55 -22 75 -42 76 -63 4 -8 -27 -18 -54 -22 -58 -11 -11
-33 77 -25 97 5 13 -2 16 -40 16 -25 0 -46 -4 -46 -9z"/>
<path d="M2011 1064 c-25 -32 -28 -100 -6 -131 19 -27 77 -40 110 -25 31 14
53 52 30 52 -8 0 -15 -7 -15 -15 0 -22 -36 -38 -60 -25 -11 6 -20 17 -20 25 0
7 -3 20 -6 29 -5 14 3 16 56 16 l63 0 -7 32 c-10 49 -33 68 -82 68 -34 0 -47
-5 -63 -26z m90 -16 c8 -33 4 -38 -33 -38 -26 0 -28 2 -22 28 9 38 14 44 32
40 8 -2 19 -15 23 -30z"/>
<path d="M2180 1080 c0 -5 4 -10 9 -10 4 0 16 -26 26 -57 45 -147 73 -148 120
-3 10 30 25 60 34 67 14 11 11 12 -16 13 -18 0 -33 -4 -33 -10 0 -5 4 -10 9
-10 13 0 -21 -99 -34 -101 -5 -1 -18 19 -28 46 -13 36 -15 51 -6 61 9 12 3 14
-35 14 -25 0 -46 -4 -46 -10z"/>
<path d="M2424 1082 c-41 -27 -46 -121 -9 -157 40 -41 135 -25 135 22 0 12 -7
9 -25 -11 -13 -14 -28 -26 -33 -26 -18 0 -42 26 -44 50 -3 24 0 25 55 28 52 3
57 5 57 26 0 13 -9 35 -21 50 -16 21 -29 26 -62 26 -23 0 -47 -4 -53 -8z m74
-40 c3 -28 0 -32 -22 -32 -32 0 -39 12 -26 45 14 37 44 30 48 -13z"/>
<path d="M2759 1080 c-25 -15 -42 -65 -35 -103 8 -44 35 -67 85 -74 35 -5 44
-2 72 26 29 29 31 36 26 79 -6 58 -33 82 -91 82 -22 0 -48 -5 -57 -10z m79
-12 c18 -18 15 -123 -3 -142 -32 -31 -55 1 -55 77 0 64 28 95 58 65z"/>
<path d="M2940 1079 c0 -5 5 -9 10 -9 6 0 10 -43 10 -110 0 -67 -4 -110 -10
-110 -5 0 -10 -4 -10 -10 0 -5 24 -10 53 -10 45 1 50 2 35 14 -11 8 -18 26
-18 45 0 34 2 36 29 20 68 -43 135 85 81 154 -19 23 -26 25 -100 25 -44 0 -80
-4 -80 -9z m134 -25 c10 -25 7 -93 -4 -115 -13 -23 -24 -24 -44 -3 -19 19 -22
104 -4 122 17 17 45 15 52 -4z"/>
<path d="M3195 1065 c-42 -41 -29 -131 22 -154 37 -17 81 -13 103 9 22 22 26
40 10 40 -5 0 -10 -4 -10 -10 0 -5 -11 -17 -25 -26 -24 -16 -27 -16 -45 1 -11
10 -20 29 -20 42 0 22 4 23 60 23 33 0 60 4 60 9 0 23 -24 73 -40 81 -35 19
-89 12 -115 -15z m85 -4 c18 -35 12 -51 -20 -51 -23 0 -30 5 -30 19 0 49 30
68 50 32z"/>
<path d="M3380 1080 c0 -5 5 -10 10 -10 15 0 13 -147 -2 -153 -7 -2 11 -6 40
-8 30 -2 56 -1 59 4 2 4 -3 7 -12 7 -13 0 -15 11 -13 66 4 79 22 101 57 70 21
-19 21 -19 21 7 0 23 -4 27 -28 27 -15 0 -33 -5 -40 -12 -9 -9 -12 -9 -12 0 0
7 -16 12 -40 12 -22 0 -40 -4 -40 -10z"/>
<path d="M1916 771 c-4 -7 -5 -15 -2 -18 9 -9 19 4 14 18 -4 11 -6 11 -12 0z"/>
<path d="M1991 771 c-20 -13 -21 -131 -1 -131 12 0 15 14 15 62 0 54 3 63 17
62 10 -1 15 2 12 7 -7 11 -25 11 -43 0z"/>
<path d="M2275 710 c0 -60 3 -70 18 -70 15 0 17 10 17 70 0 60 -2 70 -17 70
-15 0 -18 -10 -18 -70z"/>
<path d="M2678 768 c5 -7 9 -39 8 -70 -2 -43 1 -58 11 -58 9 0 13 18 13 70 0
65 -2 70 -21 70 -16 0 -19 -3 -11 -12z"/>
<path d="M2050 760 c0 -5 5 -10 10 -10 6 0 10 5 10 10 0 6 -4 10 -10 10 -5 0
-10 -4 -10 -10z"/>
<path d="M1832 698 c4 -79 24 -89 21 -11 -2 75 -1 73 -13 73 -7 0 -10 -23 -8
-62z"/>
<path d="M1519 704 c-7 -20 -6 -32 6 -50 8 -13 16 -24 18 -24 1 0 2 23 2 50 0
55 -10 64 -26 24z"/>
<path d="M1633 719 c-20 -20 -16 -67 6 -78 16 -9 17 -7 14 14 -4 20 -1 24 27
27 l32 3 -21 25 c-21 24 -22 24 -16 3 5 -17 2 -23 -9 -23 -8 0 -16 9 -18 21
-2 16 -5 18 -15 8z"/>
<path d="M1738 685 c5 -58 27 -60 27 -3 0 30 -5 44 -15 46 -12 2 -14 -7 -12
-43z"/>
<path d="M1795 720 c3 -5 8 -10 11 -10 2 0 4 5 4 10 0 6 -5 10 -11 10 -5 0 -7
-4 -4 -10z"/>
<path d="M1910 686 c0 -35 4 -46 16 -46 12 0 14 9 12 42 -4 59 -28 63 -28 4z"/>
<path d="M2050 685 c0 -29 4 -45 13 -45 8 0 11 14 9 45 -2 25 -8 45 -13 45 -5
0 -9 -20 -9 -45z"/>
<path d="M2122 721 c-17 -10 -12 -73 7 -79 9 -3 11 1 7 16 -6 18 -2 21 30 24
l36 3 -21 25 c-21 24 -22 24 -16 3 5 -19 2 -23 -15 -23 -17 0 -20 4 -15 20 7
22 6 23 -13 11z"/>
<path d="M2227 723 c-12 -11 -8 -68 5 -81 21 -21 27 -13 15 18 -9 23 -9 35 1
50 10 16 10 20 -1 20 -8 0 -17 -3 -20 -7z"/>
<path d="M2412 718 c-19 -19 -15 -66 8 -78 18 -10 19 -8 10 15 -6 16 -6 34 0
50 10 27 2 33 -18 13z"/>
<path d="M2516 714 c-19 -18 -21 -45 -4 -62 19 -19 23 -14 23 33 0 25 -1 45
-2 45 -1 0 -9 -7 -17 -16z"/>
<path d="M2565 685 c0 -47 4 -52 23 -33 21 21 9 78 -17 78 -4 0 -6 -20 -6 -45z"/>
<path d="M2632 718 c-17 -17 -15 -63 3 -78 19 -16 32 -5 17 13 -11 13 -10 47
3 67 9 14 -9 12 -23 -2z"/>
<path d="M2752 718 c-17 -17 -15 -54 4 -72 21 -22 25 -20 18 9 -6 23 -3 25 25
25 34 0 36 2 21 31 -14 25 -30 25 -23 -1 4 -14 0 -20 -12 -20 -12 0 -16 6 -12
20 6 23 -3 26 -21 8z"/>
<path d="M2855 685 c0 -35 4 -45 16 -45 22 0 32 77 11 85 -25 9 -27 6 -27 -40z"/>
<path d="M2915 720 c3 -5 8 -10 11 -10 2 0 4 5 4 10 0 6 -5 10 -11 10 -5 0 -7
-4 -4 -10z"/>
</g>
</svg>
