<?xml version="1.0" standalone="no"?>
<!DOCTYPE svg PUBLIC "-//W3C//DTD SVG 20010904//EN"
 "http://www.w3.org/TR/2001/REC-SVG-20010904/DTD/svg10.dtd">
<svg version="1.0" xmlns="http://www.w3.org/2000/svg"
 width="477.000000pt" height="482.000000pt" viewBox="0 0 477.000000 482.000000"
 preserveAspectRatio="xMidYMid meet">

<g transform="translate(0.000000,482.000000) scale(0.100000,-0.100000)"
fill="#000000" stroke="none">
<path d="M2186 4223 c-2 -10 -7 -31 -11 -48 -4 -24 -15 -34 -52 -49 -33 -14
-50 -16 -62 -9 -9 5 -26 16 -38 24 -21 13 -26 10 -72 -35 l-49 -49 24 -37 25
-37 -19 -49 c-19 -46 -22 -49 -66 -58 l-47 -8 3 -71 3 -70 44 -11 c40 -10 47
-16 64 -58 l19 -46 -26 -39 -26 -38 49 -49 50 -49 40 26 40 26 45 -20 c34 -15
47 -27 52 -47 14 -65 11 -62 84 -62 l69 0 8 43 c8 37 14 44 56 65 l47 22 41
-27 40 -26 50 49 49 49 -25 38 -26 37 18 50 c16 45 21 51 53 56 61 10 60 9 60
83 l0 69 -46 8 c-42 8 -47 13 -66 57 l-21 47 26 39 25 38 -47 47 c-26 25 -50
46 -55 46 -4 0 -21 -10 -38 -21 -27 -20 -33 -21 -70 -8 -53 17 -64 29 -72 78
l-6 41 -69 0 c-58 0 -70 -3 -75 -17z m168 -246 c22 -12 53 -39 70 -60 27 -34
31 -48 34 -110 3 -66 1 -76 -26 -118 -33 -52 -113 -99 -167 -99 -76 0 -153 47
-187 113 -25 50 -28 139 -5 183 19 37 75 90 107 103 46 18 132 13 174 -12z
m-76 -498 c3 -42 1 -46 -20 -44 -28 2 -38 42 -14 51 9 3 16 13 16 21 0 13 -3
13 -15 3 -12 -10 -15 -9 -15 4 0 12 7 16 23 14 19 -3 22 -10 25 -49z"/>
<path d="M2246 3471 c-4 -7 -5 -15 -2 -18 9 -9 19 4 14 18 -4 11 -6 11 -12 0z"/>
<path d="M1486 3843 c-9 -40 -58 -59 -93 -36 -23 16 -26 15 -55 -15 -30 -29
-31 -32 -15 -55 23 -35 4 -84 -36 -93 -26 -5 -28 -8 -25 -52 3 -39 7 -47 26
-52 14 -3 29 -18 37 -37 11 -26 11 -34 -2 -53 -14 -20 -13 -24 17 -55 31 -32
34 -33 56 -18 34 22 83 1 91 -38 5 -27 9 -29 50 -29 40 0 44 2 49 30 8 39 62
60 96 36 21 -15 24 -14 54 15 31 30 31 32 16 58 -22 39 -3 86 39 95 27 5 29 9
29 50 0 40 -2 44 -30 50 -39 7 -56 47 -39 89 11 26 10 31 -18 59 -30 29 -31
30 -56 13 -23 -15 -28 -15 -56 -1 -17 9 -31 25 -33 38 -3 20 -10 23 -50 26
-44 3 -47 1 -52 -25z m128 -144 c33 -26 56 -69 56 -106 0 -67 -67 -133 -135
-133 -37 0 -88 30 -111 65 -35 53 -12 149 44 179 41 23 114 20 146 -5z"/>
<path d="M2930 3845 c0 -17 -9 -29 -31 -40 -28 -15 -33 -15 -56 0 -24 16 -26
16 -58 -15 -32 -31 -33 -34 -18 -56 22 -34 1 -83 -39 -91 -28 -5 -29 -8 -26
-52 3 -42 6 -46 30 -49 37 -4 57 -60 34 -94 -15 -21 -14 -24 16 -55 30 -31 33
-32 55 -17 36 23 91 3 95 -34 3 -24 7 -27 49 -30 45 -3 47 -2 52 28 9 41 50
58 89 37 25 -14 27 -14 58 18 31 32 31 34 15 58 -15 23 -15 28 -1 56 9 17 25
31 38 33 20 3 23 10 26 49 3 44 1 47 -25 52 -39 8 -59 59 -36 94 16 23 15 26
-15 55 -29 30 -32 31 -55 15 -35 -23 -86 -3 -94 35 -5 26 -9 28 -54 28 -45 0
-49 -2 -49 -25z m120 -141 c86 -51 80 -182 -10 -229 -111 -57 -232 64 -175
175 34 66 120 92 185 54z"/>
<path d="M2226 3272 c-3 -5 0 -26 6 -48 13 -48 66 -100 116 -114 22 -6 178
-10 390 -10 l354 0 29 -29 c31 -32 38 -71 18 -114 -17 -37 -49 -50 -136 -55
-46 -3 -83 -8 -83 -13 0 -5 -11 -9 -25 -9 -14 0 -25 5 -25 10 0 6 -94 10 -261
10 -251 0 -263 -1 -301 -22 -48 -27 -76 -71 -84 -132 l-7 -46 42 0 c39 0 41 1
41 31 0 41 15 66 50 84 24 13 87 15 387 15 353 0 359 1 398 23 73 41 108 123
86 198 -15 50 -70 105 -118 118 -23 7 -175 11 -388 11 -389 0 -383 -1 -411 66
-12 28 -20 34 -44 34 -16 0 -31 -4 -34 -8z"/>
<path d="M1553 2715 c-18 -8 -33 -21 -33 -30 0 -13 19 -15 124 -15 71 0 127 4
131 10 3 5 -9 19 -27 30 -40 24 -145 27 -195 5z"/>
<path d="M2772 2710 c-18 -11 -30 -25 -27 -30 4 -6 60 -10 131 -10 105 0 124
2 124 16 0 43 -168 61 -228 24z"/>
<path d="M1487 2610 c-81 -96 -161 -366 -208 -701 l-22 -157 29 -35 c80 -97
290 -225 320 -195 31 31 87 139 109 211 30 92 51 136 70 144 8 3 28 -7 45 -21
58 -49 155 -47 227 3 l44 31 159 0 159 0 44 -31 c71 -50 169 -52 226 -4 16 14
34 25 40 25 18 0 48 -58 72 -135 22 -76 66 -163 104 -209 l23 -29 74 35 c80
38 200 129 237 179 l24 32 -17 126 c-43 328 -115 585 -199 713 l-32 48 -142 0
c-84 0 -144 -4 -148 -10 -3 -5 -35 -10 -70 -10 l-64 0 0 -176 c1 -149 -2 -179
-16 -193 -14 -14 -55 -16 -309 -19 -271 -3 -294 -2 -315 15 -22 18 -23 24 -22
196 l0 177 -64 0 c-35 0 -67 5 -70 10 -4 6 -63 10 -145 10 l-138 0 -25 -30z
m248 -74 c89 -41 135 -115 135 -213 0 -73 -24 -127 -77 -174 -51 -46 -100 -62
-173 -57 -202 15 -291 255 -146 397 74 73 169 90 261 47z m1219 13 c57 -16
131 -90 152 -151 40 -121 -26 -257 -145 -297 -154 -51 -310 59 -311 220 0 163
145 272 304 228z m-917 -405 c126 -96 61 -293 -98 -294 -88 0 -159 74 -159
165 0 66 29 111 90 143 56 29 118 24 167 -14z m613 14 c61 -31 90 -77 90 -143
0 -90 -71 -165 -157 -165 -154 0 -224 175 -112 282 55 53 110 61 179 26z
m-1012 -344 c3 -34 0 -42 -17 -47 -11 -2 -22 -2 -25 1 -11 10 -6 40 9 52 8 7
15 17 15 22 0 6 -7 5 -15 -2 -12 -10 -15 -9 -15 4 0 12 7 16 23 14 18 -2 23
-10 25 -44z m1282 -2 c0 -44 -2 -49 -22 -47 -31 2 -36 40 -8 55 11 6 18 15 14
21 -4 6 -11 6 -20 -2 -11 -9 -14 -8 -14 5 0 10 9 16 25 16 23 0 25 -3 25 -48z"/>
<path d="M1590 2442 c0 -39 5 -53 25 -72 l25 -23 25 23 c20 19 25 33 25 72 l0
48 -50 0 -50 0 0 -48z"/>
<path d="M1477 2373 c-4 -3 -7 -26 -7 -50 l0 -43 45 0 c47 0 95 23 95 44 0 27
-46 56 -86 56 -23 0 -44 -3 -47 -7z"/>
<path d="M1680 2345 l-23 -25 23 -25 c21 -22 32 -25 75 -23 l50 3 0 45 0 45
-50 3 c-43 2 -54 -1 -75 -23z"/>
<path d="M1606 2271 c-23 -24 -27 -36 -24 -72 l3 -44 45 0 45 0 3 50 c2 42 -1
54 -21 73 l-23 22 -28 -29z"/>
<path d="M2870 2502 c-50 -16 -65 -67 -29 -103 27 -27 66 -21 92 12 17 24 18
30 6 54 -15 30 -44 45 -69 37z"/>
<path d="M2725 2365 c-14 -13 -25 -33 -25 -45 0 -27 35 -60 64 -60 25 0 66 41
66 67 0 19 -45 63 -65 63 -9 0 -27 -11 -40 -25z"/>
<path d="M2975 2378 c-26 -15 -35 -28 -35 -55 0 -30 34 -63 63 -63 54 0 79 84
35 114 -26 19 -36 19 -63 4z"/>
<path d="M2840 2250 c-11 -11 -20 -31 -20 -45 0 -30 32 -65 60 -65 12 0 32 11
46 25 29 29 26 58 -8 88 -27 22 -53 22 -78 -3z"/>
<path d="M1878 2112 c-84 -51 -67 -181 27 -212 98 -32 189 76 141 168 -30 58
-112 80 -168 44z"/>
<path d="M2514 2111 c-84 -51 -64 -180 32 -211 96 -32 183 72 139 164 -30 64
-109 85 -171 47z"/>
<path d="M1606 1801 c-4 -7 -5 -15 -2 -18 9 -9 19 4 14 18 -4 11 -6 11 -12 0z"/>
<path d="M2890 1795 c0 -8 2 -15 4 -15 2 0 6 7 10 15 3 8 1 15 -4 15 -6 0 -10
-7 -10 -15z"/>
<path d="M1962 2448 l3 -173 205 -3 c229 -3 290 2 290 24 0 10 -7 13 -25 8
-25 -6 -25 -6 -25 65 0 56 3 71 15 71 12 0 15 -13 15 -61 0 -37 4 -58 10 -54
6 3 10 31 10 61 0 42 3 54 16 54 13 0 15 -13 12 -85 l-3 -86 35 3 35 3 3 173
2 172 -300 0 -300 0 2 -172z m198 -58 c0 -73 -3 -90 -15 -90 -12 0 -15 17 -15
90 0 73 3 90 15 90 12 0 15 -17 15 -90z m-62 48 c7 -7 12 -39 12 -73 l0 -61
-35 -1 c-24 -1 -36 4 -40 17 -7 23 3 48 26 61 20 10 26 39 9 39 -5 0 -10 -4
-10 -10 0 -5 -7 -10 -15 -10 -19 0 -19 14 1 34 19 19 36 20 52 4z m133 2 c16
-9 19 -22 19 -75 l0 -64 -37 2 c-33 2 -38 6 -41 28 -2 19 4 33 22 47 26 20 34
42 16 42 -5 0 -10 -4 -10 -10 0 -5 -7 -10 -15 -10 -21 0 -19 27 3 39 21 13 20
13 43 1z m104 0 c5 -8 11 -7 20 0 8 7 19 9 25 5 13 -8 13 -145 0 -145 -11 0
-12 4 -14 67 -2 62 -20 53 -24 -12 -2 -40 -7 -55 -17 -55 -11 0 -15 15 -17 63
l-2 62 -3 -62 c-3 -47 -8 -63 -18 -63 -12 0 -15 16 -15 71 0 66 1 71 20 66 11
-3 20 -1 20 4 0 12 17 11 25 -1z"/>
<path d="M2065 2357 c-4 -10 -5 -21 -1 -24 10 -10 18 4 13 24 -4 17 -4 17 -12
0z"/>
<path d="M2205 2357 c-4 -10 -5 -21 -1 -24 10 -10 18 4 13 24 -4 17 -4 17 -12
0z"/>
<path d="M1255 1683 c2 -16 7 -48 10 -73 18 -133 135 -204 251 -151 59 27 60
37 8 51 -63 18 -149 76 -212 143 -29 32 -55 57 -57 57 -3 0 -3 -12 0 -27z"/>
<path d="M3250 1702 c0 -13 -99 -108 -143 -137 -21 -15 -65 -36 -98 -49 -66
-25 -66 -32 4 -61 109 -45 224 26 241 150 13 95 14 105 5 105 -5 0 -9 -4 -9
-8z"/>
<path d="M331 527 c-59 -30 -85 -113 -58 -180 30 -70 111 -95 197 -61 40 16
40 16 40 70 l0 54 -53 0 c-30 0 -57 -3 -60 -7 -13 -12 15 -33 44 -33 38 0 41
-36 3 -50 -59 -23 -116 4 -127 59 -8 39 10 98 33 111 33 18 75 12 100 -15 27
-29 45 -32 54 -9 4 10 -5 27 -23 45 -25 24 -38 29 -78 29 -26 0 -59 -6 -72
-13z"/>
<path d="M614 503 c-49 -116 -81 -208 -77 -220 9 -24 33 -13 50 22 16 33 19
35 68 35 49 0 52 -2 68 -35 17 -35 43 -46 52 -22 3 7 -16 66 -43 132 -44 109
-51 120 -75 123 -23 3 -30 -2 -43 -35z m70 -100 c7 -21 4 -23 -28 -23 -41 0
-42 4 -19 62 l17 42 12 -29 c6 -17 15 -40 18 -52z"/>
<path d="M827 534 c-4 -4 -7 -65 -7 -136 0 -121 1 -128 20 -128 19 0 20 7 20
97 0 53 3 93 7 89 4 -4 17 -43 28 -88 22 -88 46 -117 69 -86 7 9 21 54 32 100
l19 83 5 -95 c5 -87 7 -95 25 -95 19 0 20 7 20 130 l0 130 -32 3 c-37 4 -42
-4 -68 -101 -10 -37 -20 -65 -23 -63 -2 3 -14 40 -26 83 -20 74 -23 78 -52 81
-16 2 -33 0 -37 -4z"/>
<path d="M1137 533 c-4 -3 -7 -61 -7 -129 0 -102 3 -123 16 -128 9 -3 51 -6
95 -6 63 0 81 3 86 15 9 24 -2 29 -75 29 l-67 1 -3 38 -3 37 64 0 c46 0 66 4
70 14 9 22 -2 26 -70 26 l-63 0 0 35 0 35 68 0 c73 0 84 4 75 26 -4 11 -27 14
-92 14 -48 0 -91 -3 -94 -7z"/>
<path d="M1478 534 c-5 -4 -8 -62 -8 -130 0 -135 0 -134 68 -134 111 0 155 44
150 148 -3 52 -9 67 -31 90 -23 23 -37 27 -100 30 -39 2 -75 0 -79 -4z m144
-64 c24 -29 24 -101 1 -129 -12 -14 -31 -22 -58 -24 l-40 -2 -3 94 -3 94 43
-6 c27 -4 49 -14 60 -27z"/>
<path d="M1752 528 c-16 -16 -17 -229 0 -246 18 -18 172 -16 188 3 16 19 5 23
-80 27 l-65 4 -3 36 -3 37 68 3 c52 2 68 6 68 18 0 11 -16 16 -65 20 -64 5
-65 5 -65 35 l0 30 73 3 c63 2 73 5 70 20 -3 14 -17 17 -88 20 -58 2 -89 -1
-98 -10z"/>
<path d="M1975 530 c-7 -11 69 -225 87 -248 6 -7 20 -12 32 -10 16 2 29 27 63
118 46 123 49 145 19 145 -15 0 -26 -19 -50 -92 -17 -50 -34 -95 -38 -98 -4
-4 -14 19 -24 51 -35 122 -67 170 -89 134z"/>
<path d="M2252 528 c-15 -15 -17 -211 -2 -239 9 -16 22 -19 94 -19 60 0 87 4
95 14 18 21 -1 29 -75 28 l-64 0 0 38 0 39 62 3 c50 2 63 6 66 21 3 15 -5 17
-62 17 l-66 0 0 35 0 35 71 0 c62 0 70 2 67 18 -3 14 -17 17 -88 20 -58 2 -89
-1 -98 -10z"/>
<path d="M2497 534 c-4 -4 -7 -62 -7 -130 0 -140 -4 -134 95 -134 71 0 95 6
95 25 0 18 -23 25 -85 25 l-54 0 -3 107 c-2 88 -6 108 -18 111 -9 1 -19 0 -23
-4z"/>
<path d="M2724 506 c-22 -22 -34 -44 -35 -62 -2 -54 3 -99 13 -117 15 -29 70
-57 111 -57 80 0 127 50 127 135 0 88 -47 135 -136 135 -39 0 -51 -5 -80 -34z
m141 -31 c29 -28 33 -80 10 -124 -39 -77 -135 -40 -135 52 0 87 71 127 125 72z"/>
<path d="M2995 528 c-3 -8 -4 -68 -3 -134 3 -111 4 -119 23 -119 17 0 20 8 23
53 l3 52 48 0 c63 0 101 28 101 75 0 18 -9 43 -19 56 -16 20 -30 24 -95 27
-59 3 -77 1 -81 -10z m129 -44 c33 -33 11 -64 -46 -64 -38 0 -38 0 -38 40 0
39 1 40 34 40 19 0 42 -7 50 -16z"/>
<path d="M3247 534 c-4 -4 -7 -65 -7 -136 0 -118 2 -129 18 -126 14 3 18 18
22 98 l5 95 13 -45 c7 -25 19 -65 25 -89 14 -53 42 -75 61 -49 7 9 21 54 32
100 l19 83 5 -95 c5 -87 7 -95 25 -95 19 0 20 7 20 130 l0 130 -33 3 c-29 3
-34 -1 -46 -30 -7 -18 -19 -57 -26 -86 -7 -29 -15 -50 -19 -47 -3 4 -15 41
-26 83 -19 73 -21 77 -50 80 -17 2 -34 0 -38 -4z"/>
<path d="M3557 533 c-4 -3 -7 -61 -7 -129 0 -141 -5 -134 100 -134 77 0 100 6
100 26 0 16 -1 16 -85 18 l-60 1 -3 37 -3 37 63 3 c50 2 63 6 66 21 3 15 -5
17 -62 17 l-66 0 0 35 0 35 68 0 c73 0 84 4 75 26 -4 11 -27 14 -92 14 -48 0
-91 -3 -94 -7z"/>
<path d="M3802 528 c-14 -14 -17 -225 -3 -247 5 -8 16 -11 25 -8 12 5 16 25
18 93 l3 86 60 -88 c40 -60 67 -90 82 -92 27 -4 29 12 25 161 -3 97 -5 107
-22 107 -17 0 -20 -9 -22 -91 l-3 -91 -60 88 c-60 89 -80 105 -103 82z"/>
<path d="M4053 525 c-7 -21 -5 -23 42 -27 l40 -4 5 -109 c5 -102 7 -110 25
-110 19 0 20 8 23 111 l3 111 27 -3 c35 -4 57 9 49 30 -9 23 -205 24 -214 1z"/>
</g>
</svg>
