<?xml version="1.0" standalone="no"?>
<!DOCTYPE svg PUBLIC "-//W3C//DTD SVG 20010904//EN"
 "http://www.w3.org/TR/2001/REC-SVG-20010904/DTD/svg10.dtd">
<svg version="1.0" xmlns="http://www.w3.org/2000/svg"
 width="507.000000pt" height="414.000000pt" viewBox="0 0 507.000000 414.000000"
 preserveAspectRatio="xMidYMid meet">

<g transform="translate(0.000000,414.000000) scale(0.100000,-0.100000)"
fill="#000000" stroke="none">
<path d="M2252 3423 c3 -18 123 -67 139 -57 22 13 4 34 -46 53 -69 26 -98 27
-93 4z"/>
<path d="M2474 3391 c-41 -11 -54 -19 -54 -38 0 -12 9 -14 53 -7 72 10 102 7
147 -16 60 -31 89 -83 105 -190 12 -75 62 -191 115 -262 27 -38 55 -68 60 -68
26 0 18 33 -19 82 -58 77 -100 174 -118 273 -20 107 -57 168 -123 202 -51 26
-120 36 -166 24z"/>
<path d="M2073 3364 c-8 -21 -5 -23 84 -44 43 -10 105 -28 136 -40 57 -21 87
-21 87 0 0 14 -47 33 -152 63 -125 36 -148 39 -155 21z"/>
<path d="M1963 3274 c-8 -22 -1 -26 89 -41 46 -8 130 -30 187 -49 72 -24 108
-31 115 -24 7 7 6 14 -4 24 -18 17 -184 71 -260 85 -122 21 -121 21 -127 5z"/>
<path d="M2464 3271 c-18 -11 -35 -24 -38 -29 -9 -16 40 -20 60 -5 25 18 68
16 93 -4 16 -13 28 -47 45 -124 27 -119 75 -223 143 -311 53 -70 148 -149 168
-141 24 9 18 18 -46 73 -112 98 -192 235 -224 385 -9 44 -21 93 -27 109 -24
60 -113 84 -174 47z"/>
<path d="M2810 3266 c0 -2 7 -40 15 -85 17 -87 48 -171 64 -171 21 0 22 23 3
83 -11 34 -23 80 -27 102 -10 64 -15 75 -36 75 -10 0 -19 -2 -19 -4z"/>
<path d="M2416 3194 c-11 -7 -17 -16 -15 -19 3 -3 14 2 25 9 10 8 17 17 14 19
-3 3 -14 -1 -24 -9z"/>
<path d="M2513 3173 c-20 -51 57 -274 132 -388 69 -104 239 -256 266 -239 18
11 8 32 -28 56 -159 106 -292 313 -325 505 -12 71 -32 100 -45 66z"/>
<path d="M1896 3171 c-11 -17 19 -28 92 -35 67 -7 72 -6 72 12 0 15 -9 21 -37
26 -55 9 -121 7 -127 -3z"/>
<path d="M2431 3154 c0 -11 3 -14 6 -6 3 7 2 16 -1 19 -3 4 -6 -2 -5 -13z"/>
<path d="M2114 3139 c-9 -15 4 -24 51 -39 22 -7 77 -28 123 -47 78 -33 112
-37 112 -13 0 12 -85 52 -184 86 -78 27 -92 29 -102 13z"/>
<path d="M2421 3111 c-12 -8 -11 -19 3 -76 23 -93 68 -206 84 -213 28 -10 29
16 1 83 -15 39 -36 103 -45 143 -18 75 -20 77 -43 63z"/>
<path d="M1870 3063 c0 -18 9 -22 68 -27 142 -14 318 -71 424 -136 27 -17 53
-28 59 -25 22 14 5 36 -53 69 -130 72 -280 119 -427 132 -67 6 -71 6 -71 -13z"/>
<path d="M1872 2954 c2 -14 13 -20 38 -22 335 -24 634 -233 777 -542 56 -121
57 -122 68 -124 32 -4 -15 130 -87 251 -43 73 -185 223 -264 279 -131 94 -309
160 -463 171 -68 6 -73 5 -69 -13z"/>
<path d="M1890 2855 c-16 -19 17 -35 74 -35 35 0 46 4 46 15 0 18 -9 21 -67
28 -28 3 -46 1 -53 -8z"/>
<path d="M2098 2814 c-13 -12 1 -22 95 -67 281 -134 477 -431 477 -723 0 -47
2 -54 20 -54 17 0 20 7 20 49 0 79 -28 219 -61 300 -57 143 -150 267 -273 365
-99 79 -256 153 -278 130z"/>
<path d="M2540 2762 c0 -33 132 -184 218 -249 80 -61 122 -78 122 -49 0 8 -17
25 -37 37 -71 44 -153 120 -214 199 -61 79 -89 98 -89 62z"/>
<path d="M1870 2740 c0 -16 7 -20 33 -20 53 0 186 -37 255 -71 70 -34 197
-131 229 -174 13 -19 26 -26 37 -22 9 4 16 10 16 15 0 18 -131 137 -196 179
-76 48 -150 79 -244 99 -95 20 -130 19 -130 -6z"/>
<path d="M1859 2644 c-14 -17 12 -30 77 -37 267 -30 497 -279 521 -563 4 -46
11 -75 19 -78 49 -19 13 210 -53 336 -99 190 -289 323 -494 347 -43 5 -62 4
-70 -5z"/>
<path d="M1897 2543 c-19 -18 -2 -33 51 -43 62 -13 138 -48 190 -87 31 -23 62
-25 62 -4 0 27 -136 102 -227 126 -65 17 -67 17 -76 8z"/>
<path d="M1995 2399 c-9 -13 -10 -11 66 -63 109 -72 177 -187 184 -308 2 -32
10 -67 19 -79 14 -21 15 -20 18 22 5 69 -9 152 -36 213 -29 65 -118 164 -182
201 -47 28 -60 30 -69 14z"/>
<path d="M2466 2392 c-3 -5 10 -44 29 -85 41 -88 65 -181 65 -253 0 -48 17
-83 33 -67 14 13 6 122 -13 199 -21 83 -77 206 -97 212 -6 2 -14 -1 -17 -6z"/>
<path d="M2250 2318 c0 -6 13 -32 29 -57 43 -67 71 -160 71 -235 0 -59 2 -64
20 -59 17 5 20 14 20 62 0 87 -32 185 -91 279 -14 23 -49 31 -49 10z"/>
<path d="M2136 2047 c9 -88 -17 -146 -80 -176 -23 -12 -48 -21 -55 -21 -20 0
-85 -37 -108 -62 -35 -38 -63 -109 -63 -163 0 -68 53 -176 79 -161 5 4 13 1
17 -5 5 -8 3 -9 -7 -4 -12 7 -12 6 -1 -8 25 -31 97 -50 165 -44 73 6 180 43
171 59 -4 7 -2 8 5 4 27 -17 168 91 221 170 61 88 80 137 79 205 -1 47 -3 57
-9 39 -4 -14 -8 -39 -9 -57 -1 -17 -5 -33 -9 -35 -14 -5 -72 -120 -66 -130 3
-4 1 -7 -5 -6 -5 2 -29 -17 -53 -42 -24 -25 -59 -58 -78 -73 -19 -16 -29 -25
-21 -21 9 5 12 3 7 -5 -4 -6 -11 -9 -16 -6 -12 7 -131 -51 -122 -60 4 -5 1 -5
-6 -1 -7 4 -36 2 -65 -4 -41 -10 -61 -9 -97 1 -25 7 -51 13 -57 12 -7 0 -11 3
-8 7 5 9 -49 62 -57 55 -3 -3 -8 1 -12 10 -3 9 -2 13 4 10 6 -4 6 3 0 20 -6
15 -10 49 -10 77 0 94 57 158 172 192 64 18 111 63 127 123 20 71 8 155 -22
161 -16 3 -17 -3 -11 -61z m304 -451 c0 -2 -8 -10 -17 -17 -16 -13 -17 -12 -4
4 13 16 21 21 21 13z m-377 -183 c-7 -2 -21 -2 -30 0 -10 3 -4 5 12 5 17 0 24
-2 18 -5z"/>
<path d="M2776 1948 c-2 -7 -9 -46 -15 -86 -6 -41 -25 -110 -42 -154 -21 -53
-28 -83 -21 -90 15 -15 39 27 72 129 32 101 43 203 23 210 -7 3 -15 -1 -17 -9z"/>
<path d="M2371 1923 c-1 -7 -7 -13 -15 -13 -8 0 -17 -7 -20 -16 -12 -30 -6
-33 20 -9 14 13 24 30 21 37 -4 10 -6 10 -6 1z"/>
<path d="M2658 1880 c-7 -43 -4 -59 8 -48 3 3 4 26 2 49 l-3 44 -7 -45z"/>
<path d="M2877 1903 c-4 -3 -7 -19 -7 -34 0 -46 -48 -196 -87 -272 -21 -40
-37 -78 -37 -84 1 -7 -2 -11 -6 -8 -9 6 -43 -43 -43 -62 0 -6 -3 -11 -6 -10
-4 1 -40 -31 -80 -70 -40 -40 -70 -73 -66 -73 4 0 -1 -12 -10 -26 -17 -26 -16
-26 28 5 47 34 114 99 110 107 -2 2 0 4 3 3 7 0 74 84 74 94 0 5 -6 5 -12 1
-8 -4 -10 -3 -5 2 5 5 14 9 20 9 19 0 85 127 116 225 38 120 50 200 29 200 -8
0 -18 -3 -21 -7z m-223 -532 c3 -5 -1 -14 -8 -20 -12 -10 -14 -9 -11 6 2 10 4
19 4 21 2 5 10 2 15 -7z m-37 -36 c0 -8 -4 -12 -9 -9 -4 3 -8 -2 -8 -11 0 -11
-5 -15 -16 -11 -8 3 -13 2 -10 -3 3 -5 -1 -14 -8 -20 -11 -10 -14 -9 -12 4 2
12 46 58 62 65 0 0 1 -7 1 -15z"/>
<path d="M1796 1837 c-36 -47 -63 -114 -70 -172 -7 -65 5 -130 24 -130 12 0
14 12 12 58 -5 78 13 147 54 204 19 26 34 54 34 60 0 24 -29 13 -54 -20z"/>
<path d="M2975 1843 c-46 -226 -126 -384 -274 -542 -46 -49 -49 -57 -23 -58
22 -1 52 27 113 103 48 61 60 82 37 68 -7 -4 -8 -3 -4 5 4 6 11 9 16 6 16 -10
22 16 8 33 -12 15 -11 16 5 3 16 -12 21 -5 66 90 48 100 91 240 91 293 0 35
-28 34 -35 -1z m-195 -493 c0 -6 -7 -13 -15 -16 -8 -4 -15 -10 -15 -16 0 -13
-26 -38 -33 -32 -3 3 -8 -4 -12 -15 -3 -12 -11 -21 -16 -21 -17 0 -9 18 16 38
14 11 25 23 25 26 0 9 34 46 42 46 5 0 8 -5 8 -10z"/>
<path d="M2216 1851 c-4 -7 -5 -15 -2 -18 9 -9 19 4 14 18 -4 11 -6 11 -12 0z"/>
<path d="M2431 1828 c0 -23 -6 -38 -14 -38 -7 0 -21 -15 -31 -34 -50 -93 -208
-202 -310 -213 -40 -5 -48 -2 -76 25 -17 18 -30 41 -30 55 0 35 44 84 83 92
32 8 102 39 124 57 9 7 10 15 2 29 -10 19 -11 19 -40 -6 -17 -13 -54 -32 -84
-40 -68 -20 -102 -47 -114 -90 -17 -64 12 -125 72 -150 77 -32 229 27 330 128
80 80 105 128 96 182 l-6 40 -2 -37z"/>
<path d="M3074 1803 c-16 -77 -56 -206 -78 -257 -14 -31 -23 -64 -20 -74 5
-14 4 -15 -5 -2 -8 12 -11 11 -17 -5 -11 -29 -101 -159 -124 -180 -21 -19 -27
-45 -10 -45 5 0 7 7 4 15 -4 9 0 15 10 15 10 0 13 -6 9 -17 -10 -29 86 97 128
167 65 111 139 313 139 383 0 36 -28 36 -36 0z m-154 -443 c-6 -11 -15 -20
-21 -20 -6 0 -7 -4 -4 -10 3 -5 2 -10 -2 -10 -5 0 -16 -12 -24 -26 -10 -17
-19 -22 -23 -15 -4 6 -3 11 2 11 6 0 22 20 36 45 26 44 58 66 36 25z"/>
<path d="M2645 1790 c-19 -8 -19 -9 3 -9 12 -1 22 4 22 9 0 6 -1 10 -2 9 -2 0
-12 -4 -23 -9z"/>
<path d="M1638 1763 c-7 -16 -12 -74 -13 -138 0 -103 2 -114 32 -177 18 -38
34 -68 37 -68 3 0 3 7 0 15 -4 8 -1 15 4 15 6 0 9 -11 6 -24 -4 -26 28 -62 45
-51 10 5 15 -7 12 -27 -1 -11 79 -68 96 -68 7 0 13 7 13 15 0 8 -4 15 -9 15
-6 0 -37 25 -70 56 -108 99 -156 234 -130 367 17 89 17 89 2 94 -7 3 -18 -8
-25 -24z m112 -409 c0 -8 -19 -13 -24 -6 -3 5 1 9 9 9 8 0 15 -2 15 -3z m47
-50 c-3 -3 -12 -4 -19 -1 -8 3 -5 6 6 6 11 1 17 -2 13 -5z m44 -34 c13 -10 18
-19 12 -20 -7 0 -13 5 -13 11 0 5 -3 8 -8 5 -4 -2 -16 2 -27 10 -15 11 -16 14
-3 14 9 0 26 -9 39 -20z"/>
<path d="M2263 1767 c-32 -40 -97 -86 -146 -103 -49 -16 -64 -44 -24 -44 55 0
171 75 218 141 l20 29 -25 0 c-14 0 -33 -10 -43 -23z"/>
<path d="M3170 1738 c-6 -24 -15 -59 -21 -78 -12 -48 -11 -60 6 -60 15 0 55
112 55 156 0 41 -28 28 -40 -18z"/>
<path d="M2589 1682 c-122 -218 -351 -363 -554 -350 -46 3 -79 1 -86 -6 -9 -8
-11 -7 -6 5 4 11 -3 20 -19 28 -14 6 -47 32 -75 58 -38 35 -52 44 -61 35 -16
-16 61 -95 120 -123 36 -18 45 -19 59 -8 15 12 16 12 10 -3 -5 -14 3 -18 47
-23 29 -4 62 -5 72 -2 11 3 0 5 -23 6 -24 0 -43 5 -43 10 0 4 35 7 78 6 60 -2
92 3 144 22 143 52 293 180 361 311 42 80 42 78 23 85 -10 4 -25 -12 -47 -51z
m-143 -214 c4 -7 4 -10 -1 -6 -4 4 -15 2 -24 -5 -14 -11 -14 -10 -2 6 16 20
18 21 27 5z m-621 -57 c-6 -5 -25 10 -25 20 0 5 6 4 14 -3 8 -7 12 -15 11 -17z
m520 -23 c-19 -11 -30 -5 -21 11 4 6 14 7 22 4 15 -5 14 -7 -1 -15z m-495 1
c0 -5 5 -7 10 -4 6 3 10 2 10 -3 0 -5 13 -15 30 -22 16 -7 27 -16 25 -21 -3
-4 -26 6 -50 22 -46 31 -53 39 -35 39 6 0 10 -5 10 -11z m420 -29 c0 -5 -8
-10 -17 -10 -15 0 -16 2 -3 10 19 12 20 12 20 0z m-53 -26 c-3 -3 -12 -4 -19
-1 -8 3 -5 6 6 6 11 1 17 -2 13 -5z"/>
<path d="M3245 1613 c-16 -54 -53 -145 -82 -203 -38 -77 -49 -107 -40 -113 8
-6 6 -7 -6 -3 -22 7 -47 -38 -30 -55 15 -15 64 58 124 186 48 101 101 263 92
278 -14 24 -32 -4 -58 -90z m-48 -188 c0 -8 -4 -12 -9 -9 -5 3 -6 10 -3 15 9
13 12 11 12 -6z m-37 -85 c0 -5 -4 -10 -10 -10 -5 0 -10 5 -10 10 0 6 5 10 10
10 6 0 10 -4 10 -10z m-59 -93 c-8 -8 -11 -7 -11 4 0 20 13 34 18 19 3 -7 -1
-17 -7 -23z"/>
<path d="M1516 1673 c-31 -32 50 -349 84 -328 6 3 7 11 4 17 -4 7 -2 8 5 4 6
-4 4 8 -5 28 -10 19 -22 32 -27 29 -6 -3 -7 -1 -3 5 3 6 -1 36 -9 68 -8 32
-15 84 -15 115 0 40 -4 58 -14 62 -8 3 -17 3 -20 0z m77 -278 c4 -8 1 -17 -5
-21 -7 -4 -8 -3 -4 4 4 7 2 12 -4 12 -6 0 -8 5 -5 10 8 14 12 13 18 -5z"/>
<path d="M3353 1604 c-3 -9 -6 -29 -7 -44 -1 -16 -3 -27 -5 -24 -2 2 -25 -47
-52 -108 -27 -62 -47 -114 -45 -115 2 -2 9 10 16 27 9 22 16 28 25 20 9 -7 19
6 38 51 15 34 24 65 21 70 -3 5 -1 9 4 9 8 0 42 95 42 118 0 18 -30 14 -37 -4z"/>
<path d="M3110 1540 c-6 -11 -8 -26 -4 -32 4 -6 3 -8 -3 -5 -5 3 -23 -21 -39
-55 -16 -34 -48 -89 -71 -122 -24 -34 -43 -66 -43 -73 0 -31 22 -18 59 33 30
41 38 61 31 69 -8 10 -6 13 6 11 11 -1 30 26 60 84 24 47 44 91 44 98 0 19
-28 14 -40 -8z m-80 -210 c-6 -11 -15 -20 -20 -20 -6 0 -10 -6 -10 -12 -1 -20
-40 -66 -40 -47 0 23 58 98 78 99 1 0 -2 -9 -8 -20z"/>
<path d="M1420 1510 c0 -34 22 -110 31 -110 5 0 7 12 4 28 -5 26 -5 26 5 3 7
-17 7 -27 -1 -37 -6 -7 -7 -19 -3 -25 5 -9 10 -7 15 7 7 17 8 17 8 2 1 -10 5
-18 10 -18 13 0 -43 163 -57 168 -7 2 -12 -6 -12 -18z"/>
<path d="M2582 1487 c-22 -23 -30 -43 -14 -33 5 3 9 -2 9 -10 0 -9 -4 -11 -10
-5 -12 12 -60 -17 -51 -30 3 -5 2 -8 -3 -7 -4 2 -23 -8 -41 -22 -29 -21 -31
-25 -15 -32 13 -5 10 -7 -12 -7 -38 -1 -84 -31 -77 -51 4 -13 3 -13 -11 -2
-14 12 -16 11 -14 -7 1 -12 5 -21 8 -21 4 0 48 27 96 59 92 62 183 149 183
176 0 22 -23 18 -48 -8z m-82 -115 c0 -13 -12 -22 -22 -16 -10 6 -1 24 13 24
5 0 9 -4 9 -8z m-88 -59 c-13 -3 -19 -9 -16 -15 4 -7 2 -8 -5 -4 -17 11 -3 26
22 25 22 -2 22 -2 -1 -6z"/>
<path d="M3415 1453 c-10 -27 -35 -83 -56 -125 -31 -63 -35 -79 -24 -88 10 -8
15 -8 21 1 4 8 3 9 -4 5 -17 -10 -15 19 1 33 8 6 16 8 19 6 3 -3 3 6 0 21 -4
22 -2 26 10 21 12 -4 23 10 42 52 35 78 43 121 24 121 -9 0 -23 -20 -33 -47z
m26 14 c-10 -9 -11 -8 -5 6 3 10 9 15 12 12 3 -3 0 -11 -7 -18z m-31 -101 c0
-2 -8 -10 -17 -17 -16 -13 -17 -12 -4 4 13 16 21 21 21 13z"/>
<path d="M1366 1341 c-9 -14 12 -63 25 -56 6 4 10 1 8 -6 -3 -28 1 -39 16 -39
18 0 19 29 1 52 -10 14 -15 15 -26 5 -10 -10 -12 -8 -6 8 4 11 8 24 9 29 3 12
-20 19 -27 7z m54 -77 c0 -8 -5 -12 -10 -9 -6 4 -8 11 -5 16 9 14 15 11 15 -7z"/>
<path d="M1473 1337 c14 -38 59 -97 72 -97 21 0 19 14 -13 62 -26 41 -72 68
-59 35z m77 -79 c0 -21 -22 0 -46 42 l-25 45 35 -39 c20 -22 36 -43 36 -48z"/>
<path d="M1605 1340 c-3 -6 3 -24 15 -40 18 -25 25 -28 36 -19 8 6 11 15 8 21
-3 5 -12 4 -20 -3 -9 -7 -14 -8 -14 -1 0 6 5 14 10 17 8 5 7 11 -1 21 -14 17
-25 18 -34 4z"/>
<path d="M3265 1318 c-6 -13 -17 -23 -25 -23 -8 0 -18 -4 -21 -8 -9 -12 2 -58
12 -51 5 3 7 10 4 15 -4 5 -2 9 3 9 4 0 18 18 31 40 12 22 19 40 14 40 -5 0
-13 -10 -18 -22z"/>
<path d="M3462 1294 c-34 -70 -8 -94 28 -24 22 44 25 54 10 45 -5 -3 -10 -2
-10 4 0 5 6 12 13 14 8 4 7 6 -4 6 -8 1 -24 -18 -37 -45z m28 -4 c0 -5 -2 -10
-4 -10 -3 0 -8 5 -11 10 -3 6 -1 10 4 10 6 0 11 -4 11 -10z m-17 -35 c-5 -13
-23 -22 -23 -11 0 15 14 35 21 31 4 -3 6 -12 2 -20z"/>
<path d="M2128 1303 c7 -3 16 -2 19 1 4 3 -2 6 -13 5 -11 0 -14 -3 -6 -6z"/>
<path d="M2298 1278 c-16 -5 -28 -16 -28 -24 0 -16 28 -18 50 -4 11 8 8 9 -13
6 -15 -3 -25 -1 -22 5 4 5 12 9 20 9 8 0 17 5 20 10 3 6 5 10 3 9 -2 0 -15 -5
-30 -11z"/>
<path d="M2507 1272 c-20 -22 -21 -32 -5 -32 6 0 8 3 5 7 -4 3 0 15 10 25 9
10 14 18 11 18 -3 0 -12 -8 -21 -18z"/>
<path d="M1330 840 c-21 -13 -28 -266 -7 -294 16 -22 95 -25 108 -4 16 24 10
48 -11 48 -11 0 -20 -7 -20 -15 0 -9 -9 -15 -25 -15 l-25 0 0 125 c0 103 3
127 15 131 19 8 46 -14 43 -34 -2 -8 5 -16 15 -17 13 -3 17 4 17 29 0 18 -5
37 -12 44 -14 14 -77 16 -98 2z"/>
<path d="M1484 833 c35 -115 54 -209 50 -252 -4 -42 -2 -49 16 -54 18 -5 20 0
20 56 0 34 11 105 25 157 29 113 29 110 10 110 -13 0 -24 -27 -40 -108 -9 -44
-19 -31 -35 46 -10 50 -16 62 -32 62 -14 0 -18 -5 -14 -17z"/>
<path d="M1670 688 l0 -163 62 5 63 5 3 66 c2 49 -1 69 -12 78 -14 11 -14 15
-1 28 21 20 20 107 -1 127 -10 10 -33 16 -65 16 l-49 0 0 -162z m85 77 c0 -44
-3 -50 -22 -53 -22 -3 -23 0 -23 53 0 53 1 56 23 53 19 -3 22 -9 22 -53z m4
-99 c7 -8 11 -34 9 -58 -3 -39 -6 -43 -30 -46 -28 -3 -28 -3 -28 57 0 53 2 61
19 61 10 0 24 -6 30 -14z"/>
<path d="M1860 688 l0 -163 50 0 c41 0 50 3 50 18 0 13 -8 17 -33 17 l-33 0 1
58 c1 54 3 57 28 60 35 4 35 30 0 34 -27 3 -28 6 -27 53 1 48 2 50 33 53 19 2
31 9 31 18 0 10 -13 14 -50 14 l-50 0 0 -162z"/>
<path d="M2010 691 c0 -150 1 -159 20 -164 19 -5 20 0 20 65 0 60 2 69 17 66
12 -2 22 -23 33 -66 8 -35 18 -63 23 -63 4 1 11 1 16 1 5 0 2 28 -7 61 -12 48
-13 66 -4 80 16 25 15 152 0 167 -7 7 -36 12 -65 12 l-53 0 0 -159z m96 106
c3 -13 4 -41 2 -63 -3 -34 -6 -39 -30 -42 l-28 -3 0 65 c0 64 1 66 25 66 17 0
26 -7 31 -23z"/>
<path d="M2290 830 c-6 -11 -10 -44 -8 -72 3 -49 6 -54 46 -81 39 -26 42 -32
42 -73 0 -40 -2 -44 -25 -44 -16 0 -25 6 -25 15 0 8 -9 15 -20 15 -23 0 -26
-18 -7 -44 16 -22 99 -19 103 4 1 8 5 23 9 33 4 10 3 17 -4 17 -8 0 -9 5 -1
19 18 35 11 51 -35 79 -44 26 -45 28 -43 72 3 37 6 45 23 45 13 0 21 -8 23
-22 4 -30 42 -32 42 -2 0 43 -18 59 -65 59 -34 0 -47 -5 -55 -20z"/>
<path d="M2470 688 l0 -163 50 3 c35 3 50 8 50 18 0 9 -12 14 -35 14 l-36 0 3
58 c3 54 4 57 31 60 38 5 36 32 -3 32 -30 0 -30 1 -30 55 l0 55 35 0 c24 0 35
5 35 15 0 11 -12 15 -50 15 l-50 0 0 -162z"/>
<path d="M2631 836 c-8 -9 -11 -60 -9 -157 l3 -144 36 -6 c48 -7 75 4 81 34 4
19 0 27 -14 30 -13 4 -18 0 -18 -15 0 -15 -6 -19 -27 -16 l-28 3 -3 105 c-4
130 1 152 31 148 14 -2 24 -12 27 -28 3 -14 12 -25 20 -25 18 0 16 65 -3 77
-20 13 -84 9 -96 -6z"/>
<path d="M2800 709 c0 -77 5 -149 10 -160 15 -28 105 -28 120 0 5 11 10 83 10
160 0 134 -1 141 -20 141 -19 0 -20 -7 -20 -145 l0 -145 -30 0 -30 0 0 145 c0
138 -1 145 -20 145 -19 0 -20 -7 -20 -141z"/>
<path d="M3000 690 c0 -146 2 -160 18 -160 15 0 17 8 14 60 -3 49 -1 61 13 66
21 9 31 -7 40 -63 6 -41 35 -87 42 -66 2 5 -3 37 -10 70 -12 50 -12 62 -1 78
16 22 19 127 4 156 -9 15 -22 19 -65 19 l-55 0 0 -160z m85 65 c0 -57 -1 -60
-25 -60 -23 0 -25 4 -28 49 -4 62 2 78 30 74 21 -3 23 -8 23 -63z"/>
<path d="M3190 690 c0 -136 2 -160 15 -160 13 0 15 24 15 160 0 136 -2 160
-15 160 -13 0 -15 -24 -15 -160z"/>
<path d="M3270 835 c0 -8 9 -15 20 -15 19 0 20 -7 20 -145 0 -138 1 -145 20
-145 19 0 20 7 20 145 0 138 1 145 20 145 11 0 20 7 20 15 0 12 -13 15 -60 15
-47 0 -60 -3 -60 -15z"/>
<path d="M3427 828 c3 -13 12 -45 20 -73 8 -27 18 -90 22 -140 5 -70 9 -90 21
-90 11 0 16 18 21 75 3 41 16 112 27 157 26 97 26 93 7 93 -18 0 -20 -4 -35
-83 -6 -31 -15 -55 -20 -52 -4 2 -13 34 -20 70 -10 51 -16 65 -30 65 -14 0
-17 -6 -13 -22z"/>
</g>
</svg>
