<?xml version="1.0" standalone="no"?>
<!DOCTYPE svg PUBLIC "-//W3C//DTD SVG 20010904//EN"
 "http://www.w3.org/TR/2001/REC-SVG-20010904/DTD/svg10.dtd">
<svg version="1.0" xmlns="http://www.w3.org/2000/svg"
 width="395.000000pt" height="381.000000pt" viewBox="0 0 395.000000 381.000000"
 preserveAspectRatio="xMidYMid meet">

<g transform="translate(0.000000,381.000000) scale(0.100000,-0.100000)"
fill="#000000" stroke="none">
<path d="M2773 2650 c-12 -5 -27 -18 -33 -29 -10 -19 -20 -21 -123 -21 l-113
0 -35 -37 -34 -38 35 33 c37 33 58 39 75 23 6 -5 24 -12 40 -14 17 -2 9 -3
-17 -2 -26 1 -45 -2 -42 -7 3 -4 48 -8 101 -8 93 0 96 -1 123 -30 44 -47 108
-39 138 17 19 35 14 63 -17 94 -30 29 -58 35 -98 19z m-135 -67 c-15 -2 -42
-2 -60 0 -18 2 -6 4 27 4 33 0 48 -2 33 -4z"/>
<path d="M2486 2525 c-9 -14 -21 -23 -26 -20 -5 3 -11 2 -14 -3 -3 -5 1 -9 9
-9 17 0 61 44 53 52 -3 3 -13 -6 -22 -20z"/>
<path d="M2386 2471 c-13 -14 -14 -21 -5 -27 7 -4 10 -3 6 3 -8 13 17 36 28
25 5 -4 5 -1 1 6 -9 16 -10 15 -30 -7z"/>
<path d="M2413 2453 c8 -13 -27 -46 -37 -36 -4 4 -4 -1 0 -12 7 -19 7 -19 -13
-2 -19 16 -21 16 -38 -3 -24 -27 -30 -60 -10 -60 15 0 35 -30 34 -52 0 -7 -4
-3 -9 10 -5 12 -21 27 -35 32 -15 6 -24 13 -22 17 3 5 -6 9 -20 10 -25 1 -25
1 5 -17 37 -23 60 -55 68 -97 7 -38 -10 -94 -36 -118 -11 -10 -18 -21 -15 -24
2 -4 -4 -7 -13 -7 -9 -1 -30 -4 -45 -7 -21 -4 -26 -3 -19 6 14 19 -1 62 -23
62 -17 0 -19 -7 -16 -58 2 -41 -2 -66 -14 -84 -12 -17 -14 -28 -7 -35 16 -16
43 -1 55 31 7 20 20 31 40 35 15 3 26 10 22 16 -4 6 1 7 11 3 12 -4 15 -3 10
5 -4 7 -2 10 7 6 16 -6 77 58 77 81 0 48 80 -9 101 -72 11 -34 4 -93 -12 -93
-4 0 -28 14 -53 31 -45 32 -76 34 -76 5 0 -9 18 -25 39 -36 49 -24 71 -55 71
-96 0 -39 22 -61 39 -40 7 8 12 30 11 48 -3 49 -1 60 9 53 17 -10 24 -95 12
-137 -10 -31 -16 -38 -29 -32 -93 39 -142 41 -142 4 0 -16 7 -20 30 -20 46 0
90 -27 106 -65 28 -67 11 -145 -38 -179 -36 -26 -55 -20 -62 19 -8 42 -47 90
-93 114 -31 16 -35 23 -39 64 -4 58 -30 120 -46 114 -14 -4 -14 -21 -2 -99 9
-64 0 -92 -48 -144 -31 -33 -38 -48 -30 -56 18 -18 57 5 88 52 15 22 29 40 33
40 12 0 62 -38 75 -56 39 -56 26 -138 -28 -179 -47 -36 -85 -41 -139 -17 -75
33 -75 33 -84 413 -4 184 -9 307 -11 274 -3 -81 -14 -102 -22 -45 -5 31 -8 7
-9 -80 -11 -542 -8 -520 -74 -560 -78 -48 -185 2 -202 94 -9 48 20 111 63 138
l35 22 16 -25 c38 -59 111 -104 111 -68 0 19 -76 95 -91 91 -8 -2 -10 0 -4 5
6 4 10 35 10 68 0 33 4 71 9 84 7 20 6 23 -9 17 -13 -4 -16 -2 -11 9 3 8 2 15
-3 15 -12 0 -31 -72 -31 -117 0 -35 -4 -41 -36 -56 -19 -10 -32 -22 -29 -27 3
-6 -1 -7 -9 -4 -19 7 -22 -12 -3 -20 6 -3 3 -4 -8 -3 -13 1 -20 -4 -19 -15 1
-10 -3 -16 -9 -15 -11 2 -29 -52 -22 -71 2 -7 -17 -1 -45 13 -28 14 -50 22
-50 19 0 -4 -7 -1 -15 6 -8 7 -15 9 -16 4 0 -5 -4 0 -9 11 -8 19 -9 19 -9 1
-1 -30 63 -83 109 -91 29 -5 40 -12 40 -25 0 -9 9 -29 21 -44 l21 -26 -87
-100 -87 -100 -77 0 c-73 0 -78 2 -103 30 -35 40 -88 42 -123 4 -34 -37 -33
-78 4 -115 38 -38 74 -38 113 1 29 29 33 30 121 30 l92 0 90 104 90 105 61 -6
c80 -7 106 0 155 44 l40 36 27 -26 c51 -49 129 -69 186 -47 23 8 31 2 118
-100 l93 -109 92 0 c88 -1 93 -2 121 -31 59 -59 152 -22 152 61 0 33 -20 60
-55 75 -40 16 -69 8 -104 -30 -22 -23 -32 -26 -97 -26 l-73 0 -83 95 c-46 53
-83 99 -82 103 0 4 9 26 20 50 16 36 25 44 62 54 30 7 54 23 81 54 34 39 44
44 80 44 52 0 91 -24 91 -57 0 -54 37 -92 90 -92 39 0 61 13 78 46 18 34 14
59 -15 93 -25 30 -30 32 -75 28 -38 -4 -54 -1 -73 13 -16 13 -40 19 -77 19
l-54 0 -11 52 c-9 46 -8 57 8 88 11 19 19 45 19 57 0 22 4 23 74 23 67 0 75
-2 81 -21 4 -11 22 -27 41 -35 30 -12 39 -12 69 0 60 25 72 90 26 137 -40 40
-83 39 -121 -1 -25 -27 -34 -30 -92 -30 l-63 0 -23 68 c-13 37 -26 86 -29 110
-5 42 -5 42 27 42 18 0 45 9 60 20 22 16 37 19 72 14 38 -5 49 -3 73 19 38 32
40 85 5 122 -45 48 -130 25 -146 -40 -3 -13 -3 -28 0 -34 3 -5 -6 -19 -20 -30
-38 -30 -103 -29 -133 3 -13 14 -36 30 -51 36 -20 8 -31 22 -35 43 -4 18 -13
42 -21 55 -14 21 -12 26 31 76 32 38 42 57 34 62 -7 4 -9 3 -6 -3z m-63 -85
c-12 -10 -26 -18 -30 -18 -12 0 -6 25 9 44 11 13 17 14 28 4 13 -10 12 -15 -7
-30z m-150 -229 c0 -15 -18 -19 -23 -6 -3 8 1 14 9 14 8 0 14 -4 14 -8z m-6
-44 c-4 -8 -8 -15 -10 -15 -2 0 -4 7 -4 15 0 8 4 15 10 15 5 0 7 -7 4 -15z
m-314 -328 c0 -5 -5 -5 -10 -2 -7 4 -9 -3 -5 -22 5 -24 4 -25 -4 -6 -12 26 -3
72 10 51 5 -7 9 -17 9 -21z m-274 -245 c4 4 16 3 26 -3 14 -8 17 -14 10 -21
-13 -13 -62 15 -62 35 0 8 4 7 10 -3 5 -8 12 -11 16 -8z m-283 -315 c3 -7 -5
-19 -16 -26 -16 -10 -19 -10 -10 -1 6 7 9 19 6 26 -3 8 -1 14 5 14 5 0 12 -6
15 -13z m39 -1 c7 4 8 2 4 -5 -9 -13 -26 -5 -25 12 0 9 2 8 6 -1 2 -6 10 -9
15 -6z m-81 -19 c-6 -8 -8 -16 -5 -19 3 -3 1 -9 -4 -12 -6 -3 -9 0 -8 6 2 16
15 38 23 38 3 0 0 -6 -6 -13z"/>
<path d="M1617 1509 c7 -7 15 -10 18 -7 3 3 -2 9 -12 12 -14 6 -15 5 -6 -5z"/>
<path d="M2260 2386 c0 -2 7 -7 16 -10 8 -3 12 -2 9 4 -6 10 -25 14 -25 6z"/>
<path d="M1736 2013 c-6 -14 -5 -15 5 -6 7 7 10 15 7 18 -3 3 -9 -2 -12 -12z"/>
<path d="M1910 2011 c5 -11 15 -23 21 -27 6 -3 3 5 -6 20 -20 30 -30 35 -15 7z"/>
<path d="M1690 1806 c0 -2 11 -6 25 -8 13 -3 22 -1 19 3 -5 9 -44 13 -44 5z"/>
<path d="M1695 1780 c-16 -7 -17 -9 -3 -9 9 -1 20 4 23 9 7 11 7 11 -20 0z"/>
<path d="M1601 1777 c2 -2 11 -8 20 -15 12 -9 16 -9 16 1 0 7 -9 14 -20 14
-11 1 -18 1 -16 0z"/>
<path d="M1583 1630 c0 -25 2 -35 4 -22 2 12 2 32 0 45 -2 12 -4 2 -4 -23z"/>
<path d="M1508 1613 c7 -3 16 -2 19 1 4 3 -2 6 -13 5 -11 0 -14 -3 -6 -6z"/>
<path d="M1483 1573 c15 -2 37 -2 50 0 12 2 0 4 -28 4 -27 0 -38 -2 -22 -4z"/>
<path d="M1590 1571 c0 -6 4 -13 10 -16 6 -3 7 1 4 9 -7 18 -14 21 -14 7z"/>
<path d="M1419 1553 c-13 -16 -12 -17 4 -4 9 7 17 15 17 17 0 8 -8 3 -21 -13z"/>
<path d="M1381 1457 c-13 -21 -12 -21 5 -5 10 10 16 20 13 22 -3 3 -11 -5 -18
-17z"/>
<path d="M1308 1423 c6 -2 18 -2 25 0 6 3 1 5 -13 5 -14 0 -19 -2 -12 -5z"/>
<path d="M1923 968 c-17 -23 -137 -398 -129 -405 15 -15 41 16 59 71 l19 57
76 -3 75 -3 19 -55 c21 -62 31 -75 52 -67 12 5 4 38 -48 194 -35 103 -67 196
-71 206 -8 20 -38 23 -52 5z m55 -140 c12 -42 25 -84 28 -92 5 -14 -4 -16 -55
-16 -36 0 -61 4 -61 11 0 24 54 189 60 182 4 -5 16 -43 28 -85z"/>
<path d="M2220 770 c0 -203 1 -210 20 -210 19 0 20 7 20 210 0 203 -1 210 -20
210 -19 0 -20 -7 -20 -210z"/>
</g>
</svg>
