<?xml version="1.0" standalone="no"?>
<!DOCTYPE svg PUBLIC "-//W3C//DTD SVG 20010904//EN"
 "http://www.w3.org/TR/2001/REC-SVG-20010904/DTD/svg10.dtd">
<svg version="1.0" xmlns="http://www.w3.org/2000/svg"
 width="469.000000pt" height="430.000000pt" viewBox="0 0 469.000000 430.000000"
 preserveAspectRatio="xMidYMid meet">

<g transform="translate(0.000000,430.000000) scale(0.100000,-0.100000)"
fill="#000000" stroke="none">
<path d="M0 2150 l0 -2150 2345 0 2345 0 0 2150 0 2150 -2345 0 -2345 0 0
-2150z m1195 1369 c-195 -12 -316 -60 -414 -164 -287 -303 -68 -906 554 -1529
336 -335 706 -601 1130 -811 301 -149 515 -223 762 -265 149 -26 345 -24 448
4 189 53 311 167 358 336 l17 65 -5 -53 c-17 -156 -128 -294 -284 -353 -185
-69 -460 -65 -757 11 -396 102 -884 354 -1283 663 l-84 65 -55 -25 c-106 -47
-157 -53 -459 -53 l-283 0 0 464 0 464 -51 87 c-117 199 -178 382 -186 556 -9
183 26 290 128 392 108 107 253 156 464 155 l120 -1 -120 -8z m360 -103 c289
-64 614 -200 931 -391 132 -80 274 -173 274 -179 0 -3 -62 34 -137 80 -439
270 -859 414 -1171 402 -238 -10 -370 -103 -402 -286 -28 -157 47 -383 210
-632 195 -297 544 -640 919 -904 618 -434 1269 -635 1598 -495 53 23 129 92
154 140 10 21 21 57 25 81 11 70 23 80 24 17 2 -461 -494 -580 -1215 -292
-255 101 -467 214 -730 389 -437 289 -810 649 -1054 1016 -101 150 -162 269
-208 404 -36 105 -38 114 -38 244 0 128 2 138 29 197 53 116 166 197 316 229
100 21 337 11 475 -20z m-70 -762 c103 -27 184 -73 261 -149 121 -120 183
-279 184 -463 0 -82 -25 -222 -39 -222 -4 0 -68 58 -143 130 -123 117 -136
133 -142 172 -16 107 -106 217 -194 241 -39 10 -49 20 -97 92 -55 85 -115 196
-115 216 0 16 203 4 285 -17z m1303 -121 l3 -143 -236 0 -235 0 0 -90 0 -90
215 0 215 0 0 -145 0 -145 -215 0 -215 0 0 -110 0 -110 240 0 240 0 0 -145 0
-145 -172 0 -172 0 -155 104 c-86 57 -189 129 -228 160 l-73 57 0 475 0 474
393 -2 392 -3 3 -142z m702 125 c80 -19 167 -68 220 -124 60 -63 89 -124 97
-200 l6 -54 -152 0 c-146 0 -151 1 -151 21 0 31 -51 76 -101 89 -49 14 -128 6
-170 -15 -68 -36 -90 -114 -45 -160 30 -30 70 -40 221 -60 248 -32 350 -85
407 -210 18 -41 23 -68 23 -145 0 -84 -3 -102 -28 -151 -50 -104 -172 -192
-309 -224 -136 -32 -327 -11 -445 48 -113 58 -194 168 -209 285 l-7 52 157 0
c144 0 156 -1 156 -18 0 -28 52 -72 105 -88 130 -38 275 9 275 90 0 72 -52 96
-242 116 -174 18 -275 56 -342 130 -64 72 -81 119 -81 240 0 95 3 110 28 162
61 123 180 202 347 228 61 10 172 4 240 -12z"/>
<path d="M1160 1812 l0 -112 93 0 c50 0 98 4 104 8 9 5 -21 41 -92 112 l-105
105 0 -113z"/>
</g>
</svg>
